<svg width="65" height="72" viewBox="0 0 65 72" fill="none" xmlns="http://www.w3.org/2000/svg">
<path d="M31.6881 0.0300536C30.4276 0.134492 29.1239 0.516231 28.0183 1.10685C27.8419 1.20408 24.3882 3.18841 20.3475 5.52206C16.3069 7.85571 11.121 10.8484 8.82333 12.1737C4.69982 14.5542 4.04078 14.9503 3.43936 15.4293C3.04682 15.7426 2.36977 16.4196 2.05646 16.8122C1.12012 17.979 0.464677 19.3907 0.183775 20.8312C-0.0106959 21.8396 0.00010804 21.0005 0.00010804 36.0072C0.00010804 51.0138 -0.0106959 50.1747 0.183775 51.1831C0.669952 53.6896 2.1789 55.8612 4.41172 57.2801C4.72863 57.4818 27.6078 70.6878 28.0183 70.9075C28.9511 71.4045 30.0063 71.7502 31.1011 71.9159C31.7817 72.0203 32.9485 72.0275 33.6148 71.9375C34.6952 71.7862 35.6459 71.4909 36.6075 71.0119C36.874 70.8787 37.9868 70.2557 39.0744 69.6254C40.1656 68.9952 45.3515 66.0025 50.5986 62.9702C55.8493 59.9415 60.2645 57.3882 60.4121 57.2945C61.082 56.8804 61.9319 56.1781 62.4361 55.6127C63.6929 54.2118 64.4636 52.5732 64.7553 50.6825C64.8201 50.2648 64.8237 49.739 64.8237 36.0072C64.8237 22.3042 64.8201 21.746 64.7553 21.3318C64.4672 19.4519 63.6893 17.7989 62.4361 16.4016C61.9319 15.8362 61.082 15.134 60.4121 14.7198C60.106 14.5289 37.7599 1.62544 37.0936 1.2545C35.3938 0.300153 33.5283 -0.121202 31.6881 0.0300536ZM33.3663 11.2842C34.9076 11.6155 36.1177 12.5374 36.8235 13.9167C37.1621 14.5758 37.3421 15.3464 37.3385 16.1279C37.3349 17.4568 36.8379 18.6416 35.8908 19.5852C35.3182 20.1542 34.6808 20.5467 33.9281 20.7916C33.3555 20.9753 33.1322 21.0077 32.3939 21.0077C31.7889 21.0041 31.6917 20.9969 31.3315 20.9069C30.6689 20.7412 30.0711 20.4711 29.5741 20.1146L29.3976 19.9885L28.5441 20.4819C28.0759 20.752 25.9836 21.9585 23.8948 23.1649L20.0954 25.3545V26.0279C20.0954 26.777 20.0522 27.0435 19.8361 27.6701C19.404 28.9198 18.4965 29.9246 17.29 30.5008C16.6238 30.8177 15.9575 30.9653 15.1977 30.9653C14.4378 30.9653 13.7715 30.8177 13.1053 30.5008C11.8952 29.9246 10.9949 28.9234 10.5592 27.6665C10.3467 27.0579 10.2999 26.777 10.2999 26.0675C10.2999 25.3761 10.3431 25.0844 10.5376 24.501C10.9373 23.3053 11.8232 22.2682 12.9468 21.6956C13.7139 21.303 14.3297 21.1554 15.1977 21.1554C16.2384 21.1554 17.0631 21.4038 17.9419 21.9837L18.2336 22.1781L22.9009 19.488C27.4169 16.8806 27.5646 16.7906 27.5394 16.7041C27.5285 16.6537 27.5177 16.38 27.5177 16.0919C27.5249 15.3248 27.6726 14.6694 28.0003 13.9815C28.4505 13.0416 29.2896 12.1917 30.2439 11.7091C30.6005 11.5326 31.2739 11.3166 31.6737 11.2517C32.0986 11.1833 32.9737 11.2013 33.3663 11.2842ZM50.1412 21.1734C51.3152 21.2994 52.3416 21.8 53.1771 22.6463C53.8361 23.3161 54.2755 24.1589 54.4916 25.1672C54.5852 25.5958 54.5852 26.5393 54.4916 26.9679C54.1639 28.5092 53.2455 29.7373 51.9202 30.4179C51.1712 30.8069 50.4545 30.9797 49.6262 30.9761C48.6467 30.9689 47.7427 30.6952 46.9468 30.1622C46.7812 30.047 46.6335 29.957 46.6191 29.957C46.5903 29.957 37.3565 35.2797 37.3241 35.3157C37.3133 35.3301 37.3133 35.4922 37.3241 35.6795C37.3998 36.8643 37.0576 38.0203 36.3446 38.9675C35.9052 39.5509 35.1705 40.1523 34.5439 40.4368L34.2702 40.5628L34.2666 45.9468V51.3308L34.6483 51.5216C36.0276 52.2239 37.0072 53.5492 37.2737 55.0833C37.3457 55.5011 37.3457 56.2934 37.2737 56.7219C37.0828 57.8347 36.4634 58.9223 35.6135 59.6354C35.0769 60.0856 34.6087 60.3485 33.9461 60.5681C31.8177 61.2776 29.4841 60.4313 28.2452 58.4938C27.9679 58.0616 27.7266 57.4458 27.597 56.848C27.5357 56.5563 27.5177 56.3618 27.5177 55.9044C27.5177 55.4471 27.5357 55.2526 27.597 54.9609C27.8203 53.9165 28.2956 53.0558 29.0411 52.3463C29.4012 52.0042 29.945 51.6261 30.316 51.4568L30.5573 51.3488V45.954V40.5628L30.2691 40.426C30.1143 40.3504 29.8514 40.1991 29.6893 40.0911C29.4408 39.9254 29.3796 39.8966 29.3184 39.929C29.2752 39.947 27.1864 41.1535 24.6691 42.6048L20.0954 45.2481L20.1062 45.7487C20.1423 47.1748 19.6453 48.4317 18.6549 49.4221C17.9455 50.1351 17.0739 50.5961 16.0548 50.7978C15.5866 50.8878 14.7367 50.8806 14.2541 50.7762C13.2133 50.5565 12.349 50.0811 11.6396 49.3356C10.7536 48.4029 10.2819 47.2289 10.2819 45.9468C10.2819 43.2422 12.4895 41.0382 15.1977 41.0382C16.1808 41.0382 17.1244 41.3299 17.9491 41.8881L18.2156 42.0682L18.3488 41.9998C18.4244 41.9601 20.5168 40.7573 23.0017 39.324L27.5213 36.713L27.5177 36.0828C27.5177 35.3841 27.5646 35.06 27.7482 34.4946C28.3172 32.7588 29.7902 31.4839 31.6124 31.1562C32.0518 31.0806 32.8117 31.0806 33.2582 31.1598C33.9281 31.2786 34.5835 31.5451 35.1561 31.9269C35.3218 32.0349 35.473 32.1178 35.4983 32.107C35.5235 32.0961 37.6194 30.8897 40.1548 29.424L44.7644 26.7626L44.7536 26.208C44.7284 25.1204 44.9841 24.2237 45.5603 23.3594C46.3742 22.1349 47.6779 21.339 49.14 21.1734C49.5326 21.1302 49.7487 21.1302 50.1412 21.1734ZM50.4401 41.1066C51.4197 41.2723 52.3092 41.7189 53.0331 42.4067C53.7785 43.1162 54.2503 43.9769 54.4772 45.0213C54.5852 45.5362 54.5852 46.3862 54.4772 46.9083C54.2683 47.8807 53.8325 48.7054 53.1591 49.3861C52.4316 50.1243 51.5601 50.5961 50.5517 50.7978C50.1124 50.8878 49.1616 50.8842 48.7439 50.7978C47.3862 50.5097 46.3022 49.7858 45.5495 48.6658C45.2038 48.1472 44.9085 47.4089 44.8004 46.7751C44.7248 46.3429 44.7248 45.5651 44.8004 45.1437C45.0922 43.4835 46.1978 42.0862 47.7355 41.438C48.1713 41.2507 48.5386 41.1534 49.068 41.0706C49.3237 41.0346 50.1304 41.0526 50.4401 41.1066Z" fill="#2B689C"/>
</svg>
